<?xml version="1.0" encoding="utf-8"?>
<!-- Generator: Adobe Illustrator 16.0.0, SVG Export Plug-In . SVG Version: 6.00 Build 0)  -->
<!DOCTYPE svg PUBLIC "-//W3C//DTD SVG 1.1//EN" "http://www.w3.org/Graphics/SVG/1.1/DTD/svg11.dtd">
<svg version="1.1" id="Layer_1" xmlns="http://www.w3.org/2000/svg" xmlns:xlink="http://www.w3.org/1999/xlink" x="0px" y="0px"
	 width="360px" height="86.692px" viewBox="0 0 360 86.692" enable-background="new 0 0 360 86.692" xml:space="preserve">
<g>
	<g>
		<g>
			<path fill="#FFFFFF" d="M227.507,62.458v23.739c0,0.33-0.165,0.495-0.495,0.495h-2.261c-0.142,0-0.277-0.047-0.406-0.141
				c-0.13-0.094-0.218-0.2-0.265-0.318l-3.745-11.693v11.658c0,0.33-0.165,0.495-0.494,0.495h-3.145
				c-0.33,0-0.494-0.165-0.494-0.495V62.458c0-0.33,0.164-0.495,0.494-0.495h2.332c0.141,0,0.276,0.048,0.406,0.142
				c0.129,0.094,0.217,0.2,0.265,0.318l3.674,11.34V62.458c0-0.33,0.165-0.495,0.495-0.495h3.144
				C227.342,61.964,227.507,62.129,227.507,62.458z"/>
			<path fill="#FFFFFF" d="M244.109,82.489c0,0.612-0.118,1.189-0.354,1.731c-0.236,0.542-0.554,1.013-0.954,1.413
				s-0.871,0.718-1.413,0.954s-1.119,0.353-1.73,0.353h-1.343c-0.612,0-1.189-0.118-1.731-0.353s-1.013-0.553-1.412-0.954
				c-0.401-0.4-0.719-0.871-0.954-1.413c-0.236-0.542-0.354-1.119-0.354-1.731V69.701c0-0.612,0.117-1.189,0.354-1.731
				c0.235-0.542,0.553-1.013,0.954-1.413c0.399-0.4,0.87-0.718,1.412-0.954c0.542-0.235,1.119-0.353,1.731-0.353h1.343
				c0.611,0,1.188,0.118,1.73,0.353c0.542,0.236,1.013,0.554,1.413,0.954s0.718,0.872,0.954,1.413
				c0.235,0.542,0.354,1.119,0.354,1.731V82.489z M239.976,69.877c0-0.235-0.083-0.436-0.247-0.601
				c-0.165-0.164-0.365-0.247-0.601-0.247h-0.282c-0.236,0-0.437,0.083-0.601,0.247c-0.165,0.165-0.248,0.366-0.248,0.601v12.435
				c0,0.236,0.083,0.436,0.248,0.601c0.164,0.165,0.364,0.247,0.601,0.247h0.282c0.235,0,0.436-0.082,0.601-0.247
				c0.164-0.165,0.247-0.365,0.247-0.601V69.877z"/>
			<path fill="#FFFFFF" d="M267.848,83.054v3.144c0,0.33-0.165,0.495-0.494,0.495h-4.77h-0.07h-0.035h-3.145
				c-0.33,0-0.494-0.165-0.494-0.495V65.991c0-0.33,0.164-0.495,0.494-0.495h3.145c0.329,0,0.494,0.165,0.494,0.495v16.568h4.381
				C267.683,82.559,267.848,82.724,267.848,83.054z"/>
			<path fill="#FFFFFF" d="M277.985,86.198c0,0.33-0.165,0.495-0.494,0.495h-3.145c-0.33,0-0.494-0.165-0.494-0.495V65.991
				c0-0.33,0.164-0.495,0.494-0.495h3.145c0.329,0,0.494,0.165,0.494,0.495V86.198z"/>
			<path fill="#FFFFFF" d="M298.475,65.991v20.207c0,0.33-0.165,0.495-0.495,0.495h-3.391c-0.33,0-0.495-0.165-0.495-0.495v-9.396
				l-2.331,8.407c-0.048,0.118-0.106,0.177-0.177,0.177c-0.071,0-0.13-0.059-0.177-0.177l-2.332-8.407v9.396
				c0,0.33-0.165,0.495-0.494,0.495h-3.392c-0.33,0-0.494-0.165-0.494-0.495V65.991c0-0.33,0.164-0.495,0.494-0.495h3.003
				c0.142,0,0.265,0.053,0.371,0.159c0.105,0.106,0.182,0.218,0.229,0.335l2.791,10.88l2.791-10.88
				c0.047-0.118,0.123-0.229,0.229-0.335c0.105-0.106,0.229-0.159,0.37-0.159h3.003C298.31,65.497,298.475,65.662,298.475,65.991z"
				/>
			<path fill="#FFFFFF" d="M309.319,86.198c0,0.33-0.165,0.495-0.494,0.495h-3.145c-0.33,0-0.494-0.165-0.494-0.495V65.991
				c0-0.33,0.164-0.495,0.494-0.495h3.145c0.329,0,0.494,0.165,0.494,0.495V86.198z"/>
			<path fill="#FFFFFF" d="M325.428,65.991v3.144c0,0.33-0.165,0.495-0.494,0.495h-2.509v16.568c0,0.33-0.165,0.495-0.494,0.495
				h-3.145c-0.118,0-0.229-0.047-0.335-0.141c-0.106-0.094-0.159-0.212-0.159-0.354V69.63h-2.473c-0.33,0-0.495-0.165-0.495-0.495
				v-3.144c0-0.33,0.165-0.495,0.495-0.495h9.114C325.263,65.497,325.428,65.662,325.428,65.991z"/>
			<path fill="#FFFFFF" d="M338.427,65.603c0.542,0.236,1.013,0.554,1.413,0.954s0.719,0.872,0.954,1.413
				c0.235,0.542,0.354,1.119,0.354,1.731v1.342c0,0.33-0.153,0.542-0.46,0.636l-3.214,0.848c-0.307,0.095-0.46-0.023-0.46-0.353
				v-2.296c0-0.235-0.082-0.436-0.247-0.601c-0.165-0.164-0.365-0.247-0.601-0.247h-0.282c-0.236,0-0.437,0.083-0.601,0.247
				c-0.165,0.165-0.247,0.366-0.247,0.601v2.155c0.022,0.259,0.07,0.483,0.141,0.671c0.071,0.189,0.2,0.377,0.389,0.565l4.628,3.462
				c0.376,0.33,0.618,0.666,0.725,1.007c0.105,0.342,0.182,0.724,0.229,1.148v3.604c0,0.612-0.118,1.189-0.354,1.731
				c-0.235,0.542-0.554,1.013-0.954,1.413s-0.871,0.718-1.413,0.954s-1.118,0.353-1.73,0.353h-1.343
				c-0.612,0-1.189-0.118-1.73-0.353c-0.542-0.235-1.014-0.553-1.413-0.954c-0.401-0.4-0.719-0.871-0.954-1.413
				c-0.235-0.542-0.354-1.119-0.354-1.731V80.51c0-0.33,0.153-0.542,0.459-0.636l3.215-0.848c0.306-0.094,0.46,0.024,0.46,0.354
				v2.932c0,0.236,0.082,0.436,0.247,0.601c0.164,0.165,0.364,0.247,0.601,0.247h0.282c0.235,0,0.436-0.082,0.601-0.247
				c0.165-0.165,0.247-0.365,0.247-0.601v-2.19c-0.023-0.306-0.07-0.577-0.141-0.812c-0.071-0.235-0.212-0.447-0.424-0.636
				l-4.558-3.497c-0.354-0.33-0.606-0.659-0.76-0.989c-0.153-0.33-0.229-0.765-0.229-1.307v-3.179c0-0.612,0.118-1.189,0.354-1.731
				c0.235-0.542,0.553-1.013,0.954-1.413c0.399-0.4,0.871-0.718,1.413-0.954c0.541-0.235,1.118-0.353,1.73-0.353h1.343
				C337.309,65.25,337.885,65.368,338.427,65.603z"/>
		</g>
		<g>
			<g>
				<path fill="#FFFFFF" d="M349.936,67.933c0,0.427-0.08,0.827-0.238,1.199c-0.16,0.373-0.377,0.695-0.652,0.969
					c-0.277,0.273-0.602,0.49-0.977,0.648c-0.375,0.159-0.777,0.238-1.203,0.238c-0.443,0-0.852-0.077-1.223-0.23
					c-0.373-0.153-0.693-0.364-0.961-0.633c-0.27-0.268-0.479-0.587-0.629-0.957c-0.152-0.37-0.227-0.776-0.227-1.219
					c0-0.427,0.078-0.825,0.238-1.195c0.158-0.37,0.375-0.691,0.652-0.965c0.275-0.273,0.6-0.488,0.973-0.645
					c0.371-0.156,0.773-0.234,1.207-0.234c0.441,0,0.85,0.076,1.223,0.227c0.371,0.151,0.691,0.361,0.961,0.629
					c0.268,0.269,0.477,0.587,0.629,0.957C349.859,67.092,349.936,67.496,349.936,67.933z M349.232,67.98
					c0-0.37-0.059-0.706-0.176-1.008c-0.117-0.302-0.281-0.561-0.488-0.777c-0.209-0.216-0.457-0.381-0.742-0.496
					c-0.287-0.114-0.598-0.172-0.93-0.172c-0.359,0-0.684,0.062-0.973,0.188s-0.539,0.297-0.746,0.516
					c-0.209,0.219-0.369,0.473-0.48,0.762c-0.113,0.289-0.168,0.598-0.168,0.926c0,0.365,0.059,0.698,0.176,1
					c0.117,0.302,0.279,0.562,0.488,0.777c0.207,0.216,0.455,0.383,0.742,0.5c0.285,0.117,0.596,0.176,0.93,0.176
					c0.359,0,0.684-0.063,0.977-0.191c0.291-0.127,0.539-0.299,0.746-0.516c0.205-0.216,0.363-0.469,0.477-0.758
					C349.176,68.617,349.232,68.308,349.232,67.98z M348.311,69.41c0,0.021-0.004,0.041-0.012,0.059
					c-0.008,0.019-0.027,0.031-0.059,0.039s-0.076,0.015-0.133,0.02c-0.059,0.005-0.137,0.008-0.234,0.008
					c-0.09,0-0.16-0.002-0.215-0.008c-0.055-0.005-0.1-0.014-0.133-0.027c-0.035-0.013-0.061-0.031-0.078-0.055
					c-0.02-0.023-0.033-0.056-0.043-0.098l-0.164-0.539c-0.062-0.192-0.137-0.327-0.223-0.402c-0.086-0.075-0.215-0.113-0.387-0.113
					h-0.211v1.094c0,0.058-0.023,0.097-0.066,0.117c-0.045,0.021-0.148,0.031-0.309,0.031c-0.162,0-0.27-0.01-0.32-0.031
					c-0.053-0.021-0.078-0.06-0.078-0.117v-2.805c0-0.114,0.027-0.204,0.086-0.27c0.057-0.065,0.143-0.098,0.258-0.098h0.898
					c0.207,0,0.391,0.019,0.551,0.055c0.158,0.037,0.293,0.094,0.406,0.172c0.111,0.078,0.195,0.176,0.254,0.293
					c0.057,0.117,0.086,0.257,0.086,0.418c0,0.25-0.068,0.444-0.203,0.582c-0.137,0.138-0.318,0.236-0.547,0.293
					c0.125,0.042,0.242,0.112,0.352,0.211c0.109,0.099,0.203,0.248,0.281,0.445l0.188,0.5
					C348.291,69.303,348.311,69.378,348.311,69.41z M347.342,67.246c0-0.057-0.008-0.112-0.023-0.164
					c-0.016-0.052-0.047-0.098-0.09-0.137c-0.045-0.039-0.104-0.069-0.176-0.09c-0.074-0.021-0.164-0.031-0.273-0.031h-0.359v0.875
					h0.344c0.219,0,0.369-0.042,0.453-0.125C347.299,67.491,347.342,67.381,347.342,67.246z"/>
			</g>
		</g>
	</g>
	<g>
		<rect x="30.524" y="27.625" fill="#0083DB" width="26.781" height="26.78"/>
		<polygon fill="#0083DB" points="30.524,0 30.524,14.222 70.693,14.222 70.693,67.796 17.143,67.796 17.143,0 2.908,0 
			2.908,82.025 84.931,82.025 84.931,0 		"/>
		<path fill="#0083DB" d="M112.171,29.279h2.928v9.646h0.083c0.616-1.816,2.215-2.596,5.553-2.596h4.489
			c7.074,0,9.231,1.977,9.231,7.542v3.087c0,6.016-3.724,7.351-9.057,7.351h-4.111c-3.067,0-5.458-0.929-6.324-3.051h-0.065v2.77
			h-2.727V29.279z M131.509,43.51c0-4.047-2.017-4.785-6.025-4.785h-3.985c-3.966-0.008-6.399,0.683-6.399,4.842v3.323
			c0,3.179,1.415,5.012,5.785,5.012l4.774,0.009c4.793-0.009,5.851-1.596,5.847-5L131.509,43.51z"/>
		<rect x="143.029" y="29.279" fill="#0083DB" width="2.941" height="24.748"/>
		<path fill="#0083DB" d="M174.098,51.014h-0.062c-1.094,2.725-3.383,3.295-7.049,3.295h-4.405c-5.514,0-7.229-2.761-7.229-5.907
			V36.599h2.913v11.074c0,2.572,0.723,4.229,6.435,4.237l0.75-0.009c6.861,0,8.453-1.287,8.445-5.394l0.008-9.909h2.932v17.429
			h-2.738V51.014z"/>
		<path fill="#0083DB" d="M184.995,43.362c0-6.322,4.378-7.033,8.554-7.033h4.715c5.264,0,9.064,1.33,9.064,7.563v1.937h-19.377
			v1.081c0,3.986,1.903,4.991,7.028,5l4.05-0.009c3.679,0,5.182-0.462,5.353-3.122h2.946v0.33c0,4.001-3.313,5.199-8.79,5.199
			h-5.327c-3.828,0-8.216-0.735-8.216-7.137V43.362z M204.382,42.276c0-1.78-1.34-3.56-6.118-3.56h-4.296
			c-4.661,0-5.747,0.746-6.017,4.713l16.431,0.016V42.276z"/>
		<path fill="#0083DB" d="M215.363,29.279h2.923v9.646h0.069c0.641-1.816,2.226-2.596,5.582-2.596l4.477-0.012
			c7.071,0.012,9.233,1.988,9.233,7.575v3.065c0,6.016-3.731,7.351-9.062,7.351h-4.094c-3.082,0-5.487-0.929-6.334-3.051h-0.073
			v2.77h-2.721V29.279z M234.701,43.51c-0.004-4.047-2.011-4.793-6.056-4.793l-3.956,0.008c-3.97-0.008-6.403,0.683-6.403,4.858
			v3.307c0,3.179,1.401,5.012,5.768,5.012l4.792,0.009c4.791-0.009,5.855-1.596,5.852-5L234.701,43.51z"/>
		<path fill="#0083DB" d="M245.035,43.362c0-6.322,4.372-7.033,8.54-7.033h4.713c5.266,0,9.061,1.33,9.061,7.563v1.937H247.96v1.081
			c0,3.986,1.919,4.991,7.054,4.991h4.038c3.663,0.009,5.188-0.462,5.351-3.147h2.946v0.358c0,3.998-3.317,5.196-8.771,5.196h-5.349
			c-3.822,0-8.194-0.735-8.194-7.137V43.362z M264.402,42.276c0-1.78-1.328-3.56-6.114-3.56h-4.306
			c-4.647,0-5.741,0.746-6.022,4.713h16.442V42.276z"/>
		<path fill="#0083DB" d="M293.389,52.287l-0.063-0.008c-0.797,1.575-1.69,2.029-6.223,2.029h-7.043
			c-4.42,0-5.601-1.957-5.601-5.229l-0.014-1.149c0-3.985,2.803-4.465,7.943-4.465h4.714c3.83,0,5.184,0.427,6.223,2.09h0.065
			l-0.002-3.279c0-3.143-1.977-3.56-6.486-3.552h-4.302c-3.722,0-4.421,0.892-4.421,2.318v0.615h-2.935v-0.857
			c0-3.175,2.003-4.483,7.283-4.472h4.646c5.468-0.012,9.151,0.828,9.151,6v11.698h-2.935L293.389,52.287z M293.389,48.562
			c0-2.396-2.126-2.689-6.624-2.689h-4.508c-3.801,0-4.871,0.526-4.871,2.713v0.547c0,1.964,0.693,2.769,4.729,2.769h3.892
			c5.341,0,7.382-0.354,7.382-2.549V48.562z"/>
		<path fill="#0083DB" d="M304.952,36.599h2.747v2.053h0.048c1.229-1.824,2.9-2.322,5.847-2.322h4.768
			c2.651,0,4.696,1.061,5.628,3.206c1.094-2.354,3.453-3.206,6.448-3.206h3.575c4.706,0,7.605,2.046,7.605,6v11.698h-2.931V42.679
			c0-1.998-0.895-3.954-5.581-3.962h-2.086c-5.301,0-6.013,2.189-6.013,4.986v10.324h-2.946V43.466c0-3.384-1.049-4.749-5.728-4.749
			h-2.942c-3.771,0-5.518,1.57-5.518,4.376v10.935h-2.922V36.599z"/>
		<g>
			<path fill="#0083DB" d="M349.936,39.799c0,0.427-0.08,0.827-0.238,1.199c-0.16,0.373-0.377,0.695-0.652,0.969
				c-0.277,0.273-0.602,0.49-0.977,0.648c-0.375,0.159-0.777,0.238-1.203,0.238c-0.443,0-0.852-0.077-1.223-0.23
				c-0.373-0.153-0.693-0.364-0.961-0.633c-0.27-0.268-0.479-0.587-0.629-0.957c-0.152-0.37-0.227-0.776-0.227-1.219
				c0-0.427,0.078-0.825,0.238-1.195c0.158-0.37,0.375-0.691,0.652-0.965c0.275-0.273,0.6-0.488,0.973-0.645
				c0.371-0.156,0.773-0.234,1.207-0.234c0.441,0,0.85,0.076,1.223,0.227c0.371,0.151,0.691,0.361,0.961,0.629
				c0.268,0.269,0.477,0.587,0.629,0.957C349.859,38.958,349.936,39.361,349.936,39.799z M349.232,39.846
				c0-0.37-0.059-0.706-0.176-1.008c-0.117-0.302-0.281-0.561-0.488-0.777c-0.209-0.216-0.457-0.381-0.742-0.496
				c-0.287-0.114-0.598-0.172-0.93-0.172c-0.359,0-0.684,0.062-0.973,0.188s-0.539,0.297-0.746,0.516
				c-0.209,0.219-0.369,0.473-0.48,0.762c-0.113,0.289-0.168,0.598-0.168,0.926c0,0.365,0.059,0.698,0.176,1
				c0.117,0.302,0.279,0.562,0.488,0.777c0.207,0.216,0.455,0.383,0.742,0.5c0.285,0.117,0.596,0.176,0.93,0.176
				c0.359,0,0.684-0.063,0.977-0.191c0.291-0.127,0.539-0.299,0.746-0.516c0.205-0.216,0.363-0.469,0.477-0.758
				C349.176,40.482,349.232,40.174,349.232,39.846z M348.311,41.275c0,0.021-0.004,0.041-0.012,0.059
				c-0.008,0.019-0.027,0.031-0.059,0.039s-0.076,0.015-0.133,0.02c-0.059,0.005-0.137,0.008-0.234,0.008
				c-0.09,0-0.16-0.002-0.215-0.008c-0.055-0.005-0.1-0.014-0.133-0.027c-0.035-0.013-0.061-0.031-0.078-0.055
				c-0.02-0.023-0.033-0.056-0.043-0.098l-0.164-0.539c-0.062-0.192-0.137-0.327-0.223-0.402c-0.086-0.075-0.215-0.113-0.387-0.113
				h-0.211v1.094c0,0.058-0.023,0.097-0.066,0.117c-0.045,0.021-0.148,0.031-0.309,0.031c-0.162,0-0.27-0.01-0.32-0.031
				c-0.053-0.021-0.078-0.06-0.078-0.117v-2.805c0-0.114,0.027-0.204,0.086-0.27c0.057-0.065,0.143-0.098,0.258-0.098h0.898
				c0.207,0,0.391,0.019,0.551,0.055c0.158,0.037,0.293,0.094,0.406,0.172c0.111,0.078,0.195,0.176,0.254,0.293
				c0.057,0.117,0.086,0.257,0.086,0.418c0,0.25-0.068,0.444-0.203,0.582c-0.137,0.138-0.318,0.236-0.547,0.293
				c0.125,0.042,0.242,0.112,0.352,0.211c0.109,0.099,0.203,0.248,0.281,0.445l0.188,0.5
				C348.291,41.169,348.311,41.244,348.311,41.275z M347.342,39.111c0-0.057-0.008-0.112-0.023-0.164
				c-0.016-0.052-0.047-0.098-0.09-0.137c-0.045-0.039-0.104-0.069-0.176-0.09c-0.074-0.021-0.164-0.031-0.273-0.031h-0.359v0.875
				h0.344c0.219,0,0.369-0.042,0.453-0.125C347.299,39.356,347.342,39.247,347.342,39.111z"/>
		</g>
	</g>
</g>
</svg>
