<?xml version="1.0" encoding="utf-8"?>
<!-- Generator: Adobe Illustrator 19.2.1, SVG Export Plug-In . SVG Version: 6.00 Build 0)  -->
<svg version="1.1" id="Layer_1" xmlns="http://www.w3.org/2000/svg" xmlns:xlink="http://www.w3.org/1999/xlink" x="0px" y="0px"
	 viewBox="0 0 216 50.9" style="enable-background:new 0 0 216 50.9;" xml:space="preserve">
<style type="text/css">
	.st0{fill:#0083DB;}
	.st1{fill:#898B8E;}
</style>
<g>
	<g>
		<g>
			<rect x="17" y="17" class="st0" width="16.5" height="16.5"/>
			<polygon class="st0" points="17,0 17,8.8 41.8,8.8 41.8,41.8 8.8,41.8 8.8,0 0,0 0,50.6 50.6,50.6 50.6,0 			"/>
		</g>
		<g>
			<path class="st0" d="M67.4,18.1h1.8V24h0.1c0.4-1.1,1.4-1.6,3.4-1.6h2.8c4.4,0,5.7,1.2,5.7,4.7V29c0,3.7-2.3,4.5-5.6,4.5H73
				c-1.9,0-3.4-0.6-3.9-1.9l0,0v1.7h-1.7V18.1z M79.3,26.8c0-2.5-1.2-2.9-3.7-2.9h-2.5c-2.4,0-3.9,0.4-3.9,3v2c0,2,0.9,3.1,3.6,3.1
				h2.9c3,0,3.6-1,3.6-3.1V26.8z"/>
			<rect x="86.4" y="18.1" class="st0" width="1.8" height="15.3"/>
			<path class="st0" d="M105.6,31.5L105.6,31.5c-0.7,1.7-2.1,2-4.4,2h-2.7c-3.4,0-4.5-1.7-4.5-3.6v-7.3h1.8v6.8c0,1.6,0.4,2.6,4,2.6
				h0.5c4.2,0,5.2-0.8,5.2-3.3v-6.1h1.8v10.7h-1.7L105.6,31.5L105.6,31.5z"/>
			<path class="st0" d="M112.3,26.7c0-3.9,2.7-4.3,5.3-4.3h2.9c3.2,0,5.6,0.8,5.6,4.7v1.2h-11.9V29c0,2.5,1.2,3.1,4.3,3.1h2.5
				c2.3,0,3.2-0.3,3.3-1.9h1.8v0.2c0,2.5-2,3.2-5.4,3.2h-3.3c-2.4,0-5.1-0.5-5.1-4.4L112.3,26.7L112.3,26.7z M124.2,26.1
				c0-1.1-0.8-2.2-3.8-2.2h-2.7c-2.9,0-3.5,0.5-3.7,2.9h10.1v-0.7H124.2z"/>
			<path class="st0" d="M131,18.1h1.8V24l0,0c0.4-1.1,1.4-1.6,3.4-1.6h2.8c4.4,0,5.7,1.2,5.7,4.7V29c0,3.7-2.3,4.5-5.6,4.5h-2.5
				c-1.9,0-3.4-0.6-3.9-1.9l0,0v1.7H131V18.1z M142.9,26.8c0-2.5-1.2-3-3.7-3h-2.4c-2.4,0-4,0.4-4,3v2c0,2,0.9,3.1,3.6,3.1h3
				c3,0,3.6-1,3.6-3.1L142.9,26.8z"/>
			<path class="st0" d="M149.3,26.7c0-3.9,2.7-4.3,5.3-4.3h2.9c3.2,0,5.6,0.8,5.6,4.7v1.2h-12V29c0,2.5,1.2,3.1,4.4,3.1h2.5
				c2.3,0,3.2-0.3,3.3-1.9h1.8v0.2c0,2.5-2,3.2-5.4,3.2h-3.3c-2.4,0-5.1-0.5-5.1-4.4L149.3,26.7L149.3,26.7z M161.3,26.1
				c0-1.1-0.8-2.2-3.8-2.2h-2.7c-2.9,0-3.5,0.5-3.7,2.9h10.1v-0.7H161.3z"/>
			<path class="st0" d="M179.1,32.3L179.1,32.3c-0.5,1-1.1,1.2-3.9,1.2h-4.3c-2.7,0-3.5-1.2-3.5-3.2v-0.7c0-2.5,1.7-2.8,4.9-2.8h2.9
				c2.4,0,3.2,0.3,3.8,1.3l0,0v-2c0-1.9-1.2-2.2-4-2.2h-2.7c-2.3,0-2.7,0.5-2.7,1.4v0.4h-1.8v-0.5c0-2,1.2-2.8,4.5-2.8h2.9
				c3.4,0,5.6,0.5,5.6,3.7v7.2H179L179.1,32.3z M179.1,30c0-1.5-1.3-1.7-4.1-1.7h-2.8c-2.3,0-3,0.3-3,1.7v0.3c0,1.2,0.4,1.7,2.9,1.7
				h2.4c3.3,0,4.6-0.2,4.6-1.6V30z"/>
			<path class="st0" d="M186.3,22.6h1.7v1.3l0,0c0.8-1.1,1.8-1.4,3.6-1.4h2.9c1.6,0,2.9,0.7,3.5,2c0.7-1.5,2.1-2,4-2h2.2
				c2.9,0,4.7,1.3,4.7,3.7v7.2h-1.8v-7c0-1.2-0.6-2.4-3.4-2.4h-1.3c-3.3,0-3.7,1.4-3.7,3.1v6.4h-1.8V27c0-2.1-0.6-2.9-3.5-2.9h-1.8
				c-2.3,0-3.4,1-3.4,2.7v6.7h-1.8V22.6H186.3z"/>
		</g>
		<g>
			<g>
				<path class="st0" d="M213.8,22.4c0.4,0,0.7,0.1,1.1,0.3c0.4,0.2,0.6,0.5,0.8,0.8c0.2,0.4,0.3,0.7,0.3,1.1s-0.1,0.7-0.3,1.1
					c-0.2,0.3-0.5,0.6-0.8,0.8c-0.3,0.2-0.7,0.3-1.1,0.3s-0.7-0.1-1.1-0.3c-0.3-0.2-0.6-0.5-0.8-0.8c-0.2-0.3-0.3-0.7-0.3-1.1
					s0.1-0.7,0.3-1.1c0.2-0.4,0.5-0.6,0.8-0.8C213.1,22.5,213.4,22.4,213.8,22.4z M213.8,22.8c-0.3,0-0.6,0.1-0.9,0.2
					c-0.3,0.2-0.5,0.4-0.7,0.7c-0.2,0.3-0.2,0.6-0.2,0.9s0.1,0.6,0.2,0.9c0.2,0.3,0.4,0.5,0.7,0.7c0.3,0.2,0.6,0.2,0.9,0.2
					s0.6-0.1,0.9-0.2c0.3-0.2,0.5-0.4,0.7-0.7c0.2-0.3,0.2-0.6,0.2-0.9s-0.1-0.6-0.2-0.9c-0.2-0.3-0.4-0.5-0.7-0.7
					C214.4,22.9,214.1,22.8,213.8,22.8z M212.8,25.8v-2.4h0.8c0.3,0,0.5,0,0.6,0.1c0.1,0,0.2,0.1,0.3,0.2c0.1,0.1,0.1,0.2,0.1,0.3
					c0,0.2-0.1,0.3-0.2,0.5c-0.1,0.1-0.3,0.2-0.5,0.2c0.1,0,0.2,0.1,0.2,0.1c0.1,0.1,0.2,0.2,0.3,0.5l0.3,0.5h-0.5l-0.2-0.4
					c-0.2-0.3-0.3-0.5-0.4-0.5c-0.1-0.1-0.2-0.1-0.3-0.1h-0.2v1L212.8,25.8L212.8,25.8z M213.2,24.5h0.5c0.2,0,0.4,0,0.5-0.1
					s0.1-0.2,0.1-0.3c0-0.1,0-0.1-0.1-0.2c0-0.1-0.1-0.1-0.2-0.1s-0.2,0-0.4,0h-0.4V24.5z"/>
			</g>
		</g>
	</g>
	<g>
		<g>
			<path class="st1" d="M131,36.7h1.6l8.3,11.9l0,0V36.7h1.3v13.6h-1.6l-8.3-11.9l0,0v11.9H131V36.7z"/>
			<path class="st1" d="M145.2,45.9c0-0.7,0.1-1.3,0.3-1.9c0.2-0.6,0.6-1.1,1-1.5s0.9-0.7,1.5-1c0.6-0.2,1.2-0.3,1.9-0.3
				c0.7,0,1.3,0.1,1.9,0.3c0.6,0.2,1.1,0.6,1.5,1s0.7,0.9,1,1.5c0.2,0.6,0.3,1.2,0.3,1.9c0,0.7-0.1,1.3-0.3,1.9
				c-0.2,0.6-0.6,1.1-1,1.5s-0.9,0.7-1.5,1c-0.6,0.2-1.2,0.3-1.9,0.3c-0.7,0-1.3-0.1-1.9-0.3c-0.6-0.2-1.1-0.6-1.5-1s-0.7-0.9-1-1.5
				C145.3,47.2,145.2,46.6,145.2,45.9z M146.3,45.9c0,0.5,0.1,1,0.2,1.4c0.2,0.4,0.4,0.8,0.7,1.2c0.3,0.3,0.7,0.6,1.1,0.8
				c0.4,0.2,0.9,0.3,1.5,0.3c0.5,0,1-0.1,1.5-0.3c0.4-0.2,0.8-0.5,1.1-0.8c0.3-0.3,0.5-0.7,0.7-1.2c0.2-0.4,0.2-0.9,0.2-1.4
				s-0.1-1-0.2-1.4c-0.2-0.4-0.4-0.8-0.7-1.2c-0.3-0.3-0.7-0.6-1.1-0.8c-0.4-0.2-0.9-0.3-1.5-0.3c-0.5,0-1,0.1-1.5,0.3
				c-0.4,0.2-0.8,0.5-1.1,0.8c-0.3,0.3-0.5,0.7-0.7,1.2C146.4,44.9,146.3,45.4,146.3,45.9z"/>
			<path class="st1" d="M162.4,36.7h1.3v12.5h6.4v1.2h-7.6L162.4,36.7L162.4,36.7z"/>
			<path class="st1" d="M171.6,37.9c0-0.2,0.1-0.4,0.2-0.6c0.2-0.2,0.4-0.3,0.6-0.3s0.5,0.1,0.6,0.3c0.2,0.2,0.3,0.4,0.3,0.6
				s-0.1,0.4-0.3,0.6c-0.2,0.2-0.4,0.3-0.6,0.3s-0.4-0.1-0.6-0.3C171.7,38.4,171.6,38.2,171.6,37.9z M171.9,41.5h1.2v8.9h-1.2V41.5z
				"/>
			<path class="st1" d="M176.4,44c0-0.2,0-0.4,0-0.6s0-0.5,0-0.7s0-0.5,0-0.7s0-0.4,0-0.5h1.2c0,0.3,0,0.7,0,1s0,0.5,0,0.6h0.1
				c0.2-0.5,0.6-0.9,1.2-1.3c0.5-0.4,1.2-0.5,1.9-0.5c0.6,0,1.1,0.2,1.6,0.5s0.8,0.8,1.1,1.5c0.3-0.7,0.7-1.2,1.3-1.5
				c0.6-0.3,1.1-0.5,1.8-0.5c0.7,0,1.3,0.1,1.7,0.3c0.4,0.2,0.8,0.5,1,0.9c0.3,0.4,0.4,0.8,0.5,1.2c0.1,0.5,0.1,0.9,0.1,1.4v5.3
				h-1.2v-5.2c0-0.4,0-0.7-0.1-1s-0.2-0.6-0.3-0.9c-0.2-0.3-0.4-0.5-0.7-0.6c-0.3-0.2-0.7-0.2-1.1-0.2c-0.5,0-1,0.1-1.3,0.3
				c-0.3,0.2-0.6,0.5-0.8,0.8c-0.2,0.3-0.3,0.6-0.4,1s-0.1,0.7-0.1,1v5h-1.2v-5.4c0-0.8-0.2-1.5-0.5-2s-0.8-0.8-1.4-0.8
				c-0.4,0-0.8,0.1-1.2,0.2c-0.4,0.1-0.7,0.4-1,0.7c-0.3,0.3-0.5,0.7-0.7,1.1c-0.2,0.5-0.2,1-0.2,1.6v4.4h-1.2L176.4,44L176.4,44z"
				/>
			<path class="st1" d="M192.7,37.9c0-0.2,0.1-0.4,0.3-0.6c0.2-0.2,0.4-0.3,0.6-0.3s0.4,0.1,0.6,0.3s0.2,0.4,0.2,0.6
				s-0.1,0.4-0.2,0.6c-0.2,0.2-0.4,0.3-0.6,0.3s-0.4-0.1-0.6-0.3C192.7,38.4,192.7,38.2,192.7,37.9z M193,41.5h1.2v8.9H193V41.5z"/>
			<path class="st1" d="M201.7,42.5h-2.5v5.8c0,0.4,0.1,0.7,0.3,0.9c0.2,0.2,0.5,0.3,0.9,0.3c0.2,0,0.4,0,0.7-0.1
				c0.2-0.1,0.4-0.1,0.6-0.2l0.1,1c-0.2,0.1-0.5,0.1-0.8,0.2s-0.5,0.1-0.8,0.1c-0.4,0-0.8-0.1-1.1-0.2c-0.3-0.1-0.5-0.3-0.7-0.5
				s-0.3-0.4-0.4-0.7c-0.1-0.3-0.1-0.6-0.1-0.9v-5.8H196v-1h1.9v-2.6h1.2v2.6h2.5L201.7,42.5L201.7,42.5z"/>
			<path class="st1" d="M203.8,48.1c0.2,0.5,0.6,0.8,1.1,1.1c0.5,0.2,1,0.4,1.5,0.4c0.2,0,0.5,0,0.7-0.1s0.5-0.2,0.7-0.3
				c0.2-0.1,0.4-0.3,0.5-0.5s0.2-0.4,0.2-0.7c0-0.4-0.1-0.7-0.4-0.9c-0.3-0.2-0.6-0.4-1-0.5s-0.8-0.2-1.3-0.3
				c-0.5-0.1-0.9-0.2-1.3-0.4c-0.4-0.2-0.7-0.4-1-0.7c-0.3-0.3-0.4-0.7-0.4-1.3c0-0.4,0.1-0.8,0.3-1.1c0.2-0.3,0.4-0.6,0.7-0.8
				c0.3-0.2,0.6-0.4,1-0.5s0.7-0.2,1.1-0.2c0.7,0,1.4,0.1,1.9,0.4s0.9,0.7,1.2,1.3l-1,0.6c-0.2-0.4-0.5-0.7-0.8-0.9
				c-0.3-0.2-0.8-0.3-1.3-0.3c-0.2,0-0.4,0-0.6,0.1s-0.4,0.2-0.6,0.3c-0.2,0.1-0.3,0.3-0.5,0.4c-0.1,0.2-0.2,0.4-0.2,0.6
				c0,0.4,0.1,0.7,0.4,0.9c0.3,0.2,0.6,0.3,1,0.5c0.4,0.1,0.8,0.2,1.3,0.3c0.5,0.1,0.9,0.2,1.3,0.4c0.4,0.2,0.7,0.4,1,0.8
				c0.3,0.3,0.4,0.8,0.4,1.4c0,0.5-0.1,0.9-0.3,1.2c-0.2,0.3-0.4,0.6-0.7,0.9c-0.3,0.2-0.6,0.4-1,0.5s-0.8,0.2-1.2,0.2
				c-0.8,0-1.5-0.1-2.1-0.4s-1.1-0.8-1.5-1.4L203.8,48.1z"/>
		</g>
		<g>
			<g>
				<path class="st1" d="M213.8,39.9c0.4,0,0.7,0.1,1.1,0.3c0.4,0.2,0.6,0.5,0.8,0.8c0.2,0.4,0.3,0.7,0.3,1.1s-0.1,0.7-0.3,1.1
					c-0.2,0.3-0.5,0.6-0.8,0.8c-0.3,0.2-0.7,0.3-1.1,0.3s-0.7-0.1-1.1-0.3c-0.3-0.2-0.6-0.5-0.8-0.8c-0.2-0.3-0.3-0.7-0.3-1.1
					s0.1-0.7,0.3-1.1c0.2-0.4,0.5-0.6,0.8-0.8C213.1,40,213.4,39.9,213.8,39.9z M213.8,40.3c-0.3,0-0.6,0.1-0.9,0.2
					c-0.3,0.2-0.5,0.4-0.7,0.7c-0.2,0.3-0.2,0.6-0.2,0.9s0.1,0.6,0.2,0.9c0.2,0.3,0.4,0.5,0.7,0.7c0.3,0.2,0.6,0.2,0.9,0.2
					s0.6-0.1,0.9-0.2c0.3-0.2,0.5-0.4,0.7-0.7c0.2-0.3,0.2-0.6,0.2-0.9s-0.1-0.6-0.2-0.9c-0.2-0.3-0.4-0.5-0.7-0.7
					C214.4,40.3,214.1,40.3,213.8,40.3z M212.8,43.3v-2.4h0.8c0.3,0,0.5,0,0.6,0.1c0.1,0,0.2,0.1,0.3,0.2c0.1,0.1,0.1,0.2,0.1,0.3
					c0,0.2-0.1,0.3-0.2,0.5c-0.1,0.1-0.3,0.2-0.5,0.2c0.1,0,0.2,0.1,0.2,0.1c0.1,0.1,0.2,0.2,0.3,0.5l0.3,0.5h-0.5l-0.2-0.4
					c-0.2-0.3-0.3-0.5-0.4-0.5c-0.1-0.1-0.2-0.1-0.3-0.1h-0.2v1L212.8,43.3L212.8,43.3z M213.2,42h0.5c0.2,0,0.4,0,0.5-0.1
					s0.1-0.2,0.1-0.3c0-0.1,0-0.1-0.1-0.2c0-0.1-0.1-0.1-0.2-0.1s-0.2,0-0.4,0h-0.4V42z"/>
			</g>
		</g>
	</g>
</g>
</svg>
